<?xml version="1.0" standalone="no"?>
<!DOCTYPE svg PUBLIC "-//W3C//DTD SVG 20010904//EN"
 "http://www.w3.org/TR/2001/REC-SVG-20010904/DTD/svg10.dtd">
<svg version="1.0" xmlns="http://www.w3.org/2000/svg"
 width="493.000000pt" height="282.000000pt" viewBox="0 0 493.000000 282.000000"
 preserveAspectRatio="xMidYMid meet">

<g transform="translate(0.000000,282.000000) scale(0.100000,-0.100000)"
fill="#000000" stroke="none">
<path d="M10 1413 l0 -1398 2422 3 c1333 1 2438 2 2456 2 l32 0 0 1395 0 1395
-2455 0 -2455 0 0 -1397z m4870 -3 l0 -1360 -2415 0 -2415 0 0 1360 0 1360
2415 0 2415 0 0 -1360z"/>
<path d="M80 1410 l0 -1330 2385 0 2385 0 0 1330 0 1330 -2385 0 -2385 0 0
-1330z m670 855 c27 -14 70 -60 70 -75 0 -5 -14 -17 -32 -28 l-32 -20 -29 24
c-37 31 -81 29 -85 -3 -3 -18 8 -27 64 -55 88 -44 124 -85 124 -142 0 -49 -31
-103 -70 -123 -31 -16 -114 -17 -143 -2 -36 19 -67 51 -67 70 0 10 14 29 32
42 l31 25 24 -29 c37 -44 98 -36 91 12 -2 17 -17 31 -53 49 -104 54 -135 87
-135 147 0 90 123 153 210 108z m408 -212 l-3 -218 -42 -3 -43 -3 0 220 0 221
45 0 45 0 -2 -217z m533 179 l29 -32 0 -138 c0 -148 -6 -171 -53 -206 -25 -18
-42 -21 -140 -21 l-112 0 -3 205 c-1 112 0 211 3 218 4 11 31 13 126 10 l121
-3 29 -33z m556 5 c28 -27 28 -29 31 -170 2 -129 1 -145 -18 -175 -31 -49 -74
-63 -188 -60 l-97 3 -3 218 -2 219 125 -4 c121 -3 125 -4 152 -31z m373 -52
l0 -85 55 0 55 0 0 85 0 85 45 0 45 0 -2 -217 -3 -218 -42 -3 -42 -3 -3 93 -3
93 -52 3 -53 3 0 -95 0 -96 -45 0 -45 0 0 220 0 220 45 0 45 0 0 -85z m688
-113 c29 -108 55 -207 58 -219 6 -21 3 -23 -39 -23 -45 0 -46 1 -56 38 -6 20
-11 43 -11 50 0 8 -17 12 -50 12 l-49 0 -14 -47 c-14 -46 -15 -48 -55 -51 -34
-3 -42 0 -42 14 0 14 90 366 105 412 3 7 23 12 52 12 l48 0 53 -198z m427 93
l44 -100 1 103 0 102 45 0 45 0 0 -220 0 -220 -43 0 -44 0 -44 102 -44 102 -3
-102 -3 -102 -44 0 -45 0 0 221 0 220 46 -3 45 -3 44 -100z m655 65 l0 -40
-50 0 -50 0 0 -180 0 -180 -45 0 -45 0 0 180 0 180 -50 0 -50 0 0 40 0 40 145
0 145 0 0 -40z m-3527 -521 c62 -17 178 -139 150 -158 -5 -3 -30 -21 -57 -40
l-48 -33 -32 36 c-44 47 -77 59 -126 46 -42 -11 -58 -37 -41 -68 5 -10 57 -41
115 -70 162 -79 216 -139 216 -239 0 -149 -98 -243 -251 -243 -93 0 -191 55
-228 128 -15 27 -10 34 59 92 l47 40 27 -41 c58 -87 176 -82 176 7 0 39 -36
71 -117 103 -72 28 -123 61 -162 106 -40 46 -51 74 -51 131 0 142 167 247 323
203z m2455 -4 c97 -29 151 -102 152 -202 l0 -53 -75 0 c-69 0 -75 2 -75 20 0
29 -26 76 -45 84 -9 3 -40 6 -69 6 -44 0 -57 -4 -77 -26 -23 -25 -24 -29 -24
-199 0 -161 2 -176 21 -202 18 -23 29 -28 72 -31 63 -4 89 9 108 53 28 67 22
75 -51 75 l-65 0 0 70 0 70 140 0 140 0 0 -130 c0 -146 -10 -183 -63 -238 -56
-58 -202 -80 -313 -47 -57 17 -115 71 -133 124 -7 21 -11 118 -11 258 0 239 3
256 54 311 59 66 198 91 314 57z m-1718 -375 l0 -380 -75 0 -75 0 0 380 0 380
75 0 75 0 0 -380z m676 198 l79 -183 3 183 2 182 75 0 75 0 0 -380 0 -380 -73
0 -72 0 -80 182 -80 181 -5 -179 -5 -179 -75 0 -75 0 -3 365 c-1 201 0 371 3
377 3 9 28 13 78 13 l75 0 78 -182z m1782 30 l3 -148 89 0 90 0 0 150 0 150
75 0 75 0 0 -380 0 -380 -75 0 -74 0 -3 158 -3 157 -87 3 -88 3 0 -145 c0 -79
-3 -151 -6 -160 -5 -13 -22 -16 -80 -16 l-74 0 0 380 0 381 78 -3 77 -3 3
-147z m-3020 -860 c2 -13 -3 -18 -17 -18 -18 0 -20 -7 -23 -67 -2 -53 -6 -68
-18 -68 -12 0 -16 15 -18 68 -3 59 -5 67 -22 67 -20 0 -27 20 -13 34 4 4 30 6
58 4 38 -2 51 -7 53 -20z m180 -16 c2 -19 9 -32 17 -32 8 0 15 13 17 32 2 22
9 34 21 36 15 3 17 -6 17 -88 0 -82 -2 -91 -17 -88 -12 2 -19 14 -21 36 -4 43
-30 43 -34 0 -2 -22 -9 -34 -20 -36 -16 -3 -18 6 -18 88 0 82 2 91 18 88 11
-2 18 -14 20 -36z m322 18 c0 -16 -7 -20 -30 -20 -20 0 -30 -5 -30 -15 0 -9
10 -15 26 -15 33 0 30 -33 -4 -38 -34 -5 -28 -32 8 -32 23 0 30 -4 30 -20 0
-17 -7 -20 -45 -20 l-45 0 0 90 0 90 45 0 c38 0 45 -3 45 -20z m451 10 c16 -9
19 -22 19 -73 0 -81 -7 -90 -67 -91 l-48 -1 -3 74 c-2 41 -1 80 2 88 6 16 69
18 97 3z m267 -12 c3 -14 -3 -18 -27 -18 -37 0 -43 -27 -8 -32 12 -2 22 -10
22 -18 0 -8 -10 -16 -22 -18 -35 -5 -29 -32 8 -32 24 0 30 -4 27 -17 -3 -14
-13 -18 -48 -18 l-45 0 -3 74 c-2 41 -1 80 2 88 9 22 90 13 94 -9z m186 -26
c11 -53 22 -54 31 -1 6 37 27 60 42 46 6 -6 -24 -130 -39 -159 -18 -36 -35
-18 -56 61 -27 95 -27 103 -5 99 12 -2 21 -18 27 -46z m316 28 c0 -16 -7 -20
-30 -20 -20 0 -30 -5 -30 -15 0 -9 10 -15 26 -15 33 0 30 -33 -4 -38 -34 -5
-28 -32 8 -32 24 0 30 -4 30 -21 0 -18 -5 -20 -47 -17 l-48 3 -3 74 c-2 41 -1
80 2 88 3 8 22 13 51 13 38 0 45 -3 45 -20z m188 -53 c3 -64 4 -67 27 -67 18
0 25 -5 25 -20 0 -17 -7 -20 -45 -20 l-45 0 0 91 c0 81 2 90 18 87 14 -3 18
-16 20 -71z m296 57 c11 -10 16 -34 16 -74 0 -66 -15 -90 -57 -90 -45 0 -63
26 -63 88 0 38 5 61 17 74 20 22 66 24 87 2z m246 6 c22 -12 33 -51 24 -85 -4
-18 -15 -28 -35 -32 -23 -4 -29 -11 -29 -30 0 -18 -5 -24 -17 -21 -15 3 -19
16 -21 77 -2 41 -1 80 2 88 6 15 49 17 76 3z m260 -10 c0 -15 -7 -20 -25 -20
-16 0 -25 -6 -25 -15 0 -8 9 -15 20 -15 13 0 20 -7 20 -20 0 -13 -7 -20 -20
-20 -11 0 -20 -7 -20 -15 0 -9 9 -15 25 -15 18 0 25 -5 25 -20 0 -17 -7 -20
-45 -20 l-45 0 0 90 0 90 45 0 c38 0 45 -3 45 -20z m235 6 c12 -9 18 -24 17
-47 -1 -19 -2 -53 -3 -76 -2 -50 -23 -58 -41 -15 l-12 27 -4 -28 c-2 -20 -8
-27 -20 -25 -14 3 -18 17 -20 77 -2 41 -1 80 2 88 7 17 57 17 81 -1z"/>
<path d="M658 2233 c6 -2 18 -2 25 0 6 3 1 5 -13 5 -14 0 -19 -2 -12 -5z"/>
<path d="M604 2208 l-19 -23 25 20 c14 11 27 21 29 22 2 2 0 3 -6 3 -5 0 -18
-10 -29 -22z"/>
<path d="M634 2086 c11 -9 24 -16 30 -16 12 0 7 5 -24 19 -24 11 -24 11 -6 -3z"/>
<path d="M700 2056 c0 -3 9 -10 20 -16 11 -6 20 -8 20 -6 0 3 -9 10 -20 16
-11 6 -20 8 -20 6z"/>
<path d="M756 1902 l-19 -27 24 22 c12 12 21 24 18 27 -2 2 -13 -8 -23 -22z"/>
<path d="M708 1873 c7 -3 16 -2 19 1 4 3 -2 6 -13 5 -11 0 -14 -3 -6 -6z"/>
<path d="M1114 2055 c0 -99 2 -138 3 -87 2 51 2 132 0 180 -1 48 -3 6 -3 -93z"/>
<path d="M1488 2233 c17 -2 47 -2 65 0 17 2 3 4 -33 4 -36 0 -50 -2 -32 -4z"/>
<path d="M1611 2228 c2 -2 18 -14 34 -28 l30 -25 -24 28 c-14 15 -29 27 -34
27 -6 0 -8 -1 -6 -2z"/>
<path d="M1510 2055 l0 -135 40 0 c67 0 80 22 80 135 0 113 -13 135 -80 135
l-40 0 0 -135z"/>
<path d="M1674 2050 c0 -63 1 -89 3 -57 2 31 2 83 0 115 -2 31 -3 5 -3 -58z"/>
<path d="M1660 1922 c0 -6 -12 -18 -27 -26 -16 -8 -23 -15 -17 -16 18 0 60 37
52 46 -5 4 -8 2 -8 -4z"/>
<path d="M1493 1873 c20 -2 54 -2 75 0 20 2 3 4 -38 4 -41 0 -58 -2 -37 -4z"/>
<path d="M2048 2233 c18 -2 45 -2 60 0 15 2 0 4 -33 4 -33 0 -45 -2 -27 -4z"/>
<path d="M2206 2198 c10 -14 21 -24 23 -22 3 3 -6 15 -18 27 l-24 22 19 -27z"/>
<path d="M2060 2055 l0 -135 45 0 c72 0 85 20 85 135 0 115 -13 135 -85 135
l-45 0 0 -135z"/>
<path d="M2234 2045 c0 -60 1 -84 3 -52 2 32 2 81 0 110 -2 29 -3 3 -3 -58z"/>
<path d="M2180 1890 c-9 -6 -10 -10 -3 -10 6 0 15 5 18 10 8 12 4 12 -15 0z"/>
<path d="M2053 1873 c20 -2 54 -2 75 0 20 2 3 4 -38 4 -41 0 -58 -2 -37 -4z"/>
<path d="M2574 2050 c0 -102 2 -144 3 -93 l4 92 97 4 97 3 -97 2 -97 2 -4 88
c-1 48 -3 4 -3 -98z"/>
<path d="M3206 2217 c3 -10 9 -15 12 -12 3 3 0 11 -7 18 -10 9 -11 8 -5 -6z"/>
<path d="M3197 2074 c-3 -16 -9 -37 -12 -46 -6 -15 -2 -18 20 -18 25 0 26 2
20 33 -12 52 -21 63 -28 31z"/>
<path d="M3640 2221 c0 -6 4 -13 10 -16 6 -3 7 1 4 9 -7 18 -14 21 -14 7z"/>
<path d="M3818 2059 c-2 -94 0 -176 4 -183 4 -6 8 71 8 172 0 100 -2 182 -5
182 -2 0 -5 -77 -7 -171z"/>
<path d="M3750 2010 c6 -11 13 -20 16 -20 2 0 0 9 -6 20 -6 11 -13 20 -16 20
-2 0 0 -9 6 -20z"/>
<path d="M4187 2233 l53 -4 3 -177 2 -177 3 177 2 177 48 4 c26 2 0 3 -58 3
-58 0 -81 -1 -53 -3z"/>
<path d="M716 1635 c-102 -36 -132 -148 -59 -217 16 -14 73 -49 128 -77 125
-63 156 -93 162 -158 13 -148 -154 -216 -273 -111 -19 17 -34 25 -34 20 0 -6
15 -22 33 -35 129 -97 287 -34 287 113 0 83 -39 122 -191 193 -108 50 -139 81
-139 138 0 74 32 110 113 128 53 13 104 0 146 -34 36 -31 51 -33 25 -4 -25 29
-92 59 -129 58 -16 0 -48 -6 -69 -14z"/>
<path d="M3147 1640 c-49 -9 -87 -38 -109 -81 -15 -29 -18 -63 -18 -228 0
-174 2 -199 20 -236 22 -45 70 -76 118 -74 19 0 13 4 -23 14 -54 14 -89 49
-99 98 -3 16 -6 109 -6 206 1 241 16 271 150 299 25 5 36 10 25 10 -11 0 -37
-4 -58 -8z"/>
<path d="M3282 1624 c53 -16 97 -62 99 -102 1 -21 2 -22 6 -7 12 47 -69 126
-128 124 -16 0 -8 -5 23 -15z"/>
<path d="M3314 1293 l78 -4 -4 -83 c-6 -114 -37 -158 -126 -177 -36 -8 -35 -8
7 -4 89 8 124 58 129 188 l4 87 -84 -2 -83 -2 79 -3z"/>
<path d="M1524 1330 c0 -173 2 -244 3 -157 2 86 2 228 0 315 -1 86 -3 15 -3
-158z"/>
<path d="M2122 1330 l3 -315 3 295 3 295 145 -285 c80 -157 149 -289 155 -294
5 -6 8 107 7 305 l-3 314 -5 -295 -5 -295 -126 250 c-70 138 -139 270 -153
295 l-26 45 2 -315z"/>
<path d="M3974 1330 c0 -173 2 -244 3 -157 l4 157 164 0 164 0 4 -157 c1 -87
3 -16 3 157 0 173 -2 246 -3 162 l-4 -152 -162 2 -162 3 -5 150 c-4 99 -6 43
-6 -165z"/>
<path d="M1930 631 c0 -44 3 -51 20 -51 39 0 41 93 3 98 -21 3 -23 0 -23 -47z"/>
<path d="M3184 666 c-11 -29 1 -81 19 -84 14 -3 17 4 17 47 0 39 -4 51 -15 51
-9 0 -18 -6 -21 -14z"/>
<path d="M3450 656 c0 -17 5 -26 16 -26 10 0 14 7 12 22 -5 32 -28 35 -28 4z"/>
<path d="M3940 656 c0 -17 5 -26 16 -26 10 0 14 7 12 22 -5 32 -28 35 -28 4z"/>
</g>
</svg>
